<?xml version="1.0" encoding="UTF-8" standalone="no"?>
<!-- Created with Inkscape (http://www.inkscape.org/) -->

<svg
   width="48"
   height="48"
   viewBox="0 0 12.7 12.7"
   version="1.1"
   id="svg5"
   xml:space="preserve"
   inkscape:version="1.2.2 (b0a8486541, 2022-12-01)"
   sodipodi:docname="favicon.svg"
   xmlns:inkscape="http://www.inkscape.org/namespaces/inkscape"
   xmlns:sodipodi="http://sodipodi.sourceforge.net/DTD/sodipodi-0.dtd"
   xmlns="http://www.w3.org/2000/svg"
   xmlns:svg="http://www.w3.org/2000/svg"><sodipodi:namedview
     id="namedview7"
     pagecolor="#ffffff"
     bordercolor="#666666"
     borderopacity="1.0"
     inkscape:showpageshadow="2"
     inkscape:pageopacity="0.0"
     inkscape:pagecheckerboard="0"
     inkscape:deskcolor="#d1d1d1"
     inkscape:document-units="mm"
     showgrid="false"
     inkscape:zoom="5.9794052"
     inkscape:cx="33.197282"
     inkscape:cy="33.364523"
     inkscape:window-width="1920"
     inkscape:window-height="1020"
     inkscape:window-x="0"
     inkscape:window-y="0"
     inkscape:window-maximized="1"
     inkscape:current-layer="layer1" /><defs
     id="defs2"><inkscape:path-effect
       effect="fill_between_many"
       method="originald"
       linkedpaths="#path302,0,1"
       id="path-effect400"
       is_visible="true"
       lpeversion="0"
       join="true"
       close="true"
       autoreverse="true" /></defs><g
     inkscape:label="Calque 1"
     inkscape:groupmode="layer"
     id="layer1"><path
       style="fill:#008080;stroke-width:0.0119139"
       d="M 3.5719711,5.8724305 C 3.4860377,5.8514952 3.4031648,5.7816958 3.3700381,5.702264 3.3319827,5.6110759 3.3537013,5.4775955 3.4193318,5.3989334 3.4312299,5.3846629 3.5133866,5.3291566 3.6018117,5.2755874 4.2301512,4.8950886 4.8440899,4.3751575 5.2825365,3.852225 5.5159057,3.5738806 5.6980929,3.2982769 5.8537259,2.9881356 5.9375805,2.8209755 6.0161674,2.7616662 6.1528007,2.7623508 c 0.085367,4.496e-4 0.143168,0.036382 0.2834464,0.1762873 0.3647615,0.3637982 0.7663043,0.5976259 1.1723987,0.6827171 0.1698449,0.035591 0.4088328,0.035637 0.5769024,1.224e-4 0.3433162,-0.072557 0.6410783,-0.2427903 0.9609281,-0.5493635 0.164793,-0.1579544 0.1898552,-0.172389 0.2991696,-0.1723377 0.1430826,9.19e-5 0.1738114,0.024436 0.3539398,0.2806669 0.3331553,0.4739334 0.8041163,0.9795611 1.2419563,1.3333927 0.135359,0.1093804 0.398465,0.2824441 0.537128,0.3532954 0.227279,0.1161303 0.451961,0.1848643 0.654866,0.2003181 0.134056,0.010201 0.188543,0.026591 0.24269,0.07294 0.07185,0.061514 0.100494,0.1308484 0.09489,0.2298473 -0.0057,0.1043932 -0.05014,0.180972 -0.134592,0.233045 -0.05741,0.035375 -0.06129,0.036044 -0.208185,0.034718 C 11.451466,5.6310852 10.473947,4.9647554 9.5604606,3.819463 9.4781157,3.7162486 9.4066027,3.631816 9.4014752,3.631816 c -0.00472,0 -0.042871,0.027283 -0.083854,0.060664 C 9.2766375,3.7258378 9.1793536,3.7955467 9.1014473,3.8473771 8.5159701,4.2369233 7.8690652,4.3277227 7.2184586,4.1116663 6.923378,4.0136773 6.5982211,3.8337187 6.3305448,3.6202545 6.2727523,3.5742014 6.2226187,3.5365122 6.2190482,3.5365122 c -0.00377,0 -0.033618,0.045011 -0.066857,0.1000284 C 5.7008261,4.383798 4.8452272,5.1968459 3.9186534,5.7590093 3.7349458,5.870464 3.6619878,5.8943418 3.5720415,5.8724476 Z M 9.9952669,5.7469729 C 9.8571229,5.6977279 9.5605032,5.4144336 8.7785795,4.5849389 L 8.6494251,4.4479278 8.7139223,4.4388591 C 8.9079039,4.4116905 8.988813,4.3804633 9.1642767,4.2649338 l 0.1118446,-0.073642 0.1574932,0.1640366 c 0.1871642,0.1949284 0.4055558,0.3949122 0.7167465,0.6563065 0.201698,0.1694172 0.232105,0.199655 0.261784,0.2603164 0.02748,0.056084 0.03343,0.083967 0.03305,0.1524581 -6.98e-4,0.1029993 -0.02143,0.1538581 -0.09464,0.2321189 -0.09028,0.096515 -0.234871,0.1333081 -0.3552431,0.090406 z M 0.59625637,5.2397288 C 0.42298346,5.1967134 0.31162008,5.0416527 0.32971322,4.8685732 0.33348771,4.8303751 0.34831578,4.7768183 0.36219751,4.7495798 0.39043238,4.6942208 0.36179134,4.721889 1.1295595,4.0081935 1.8418301,3.3460809 2.2270362,2.9467064 2.6129975,2.4701947 2.8023617,2.2364023 2.8992863,2.130582 3.0298477,2.0150747 3.4662074,1.6290364 3.8993282,1.4997638 4.4595351,1.588358 4.6063483,1.6115763 4.8962254,1.611461 5.0754756,1.5881438 5.4106235,1.5444892 5.8362276,1.4185419 6.1483527,1.2706483 L 6.2466377,1.2240753 6.247006,0.8463707 C 6.2473649,0.46934166 6.256446,0.32790168 6.283928,0.26741192 6.297997,0.23649972 6.301492,0.23550572 6.382761,0.23884152 l 0.084233,0.003457 0.016242,0.047657 c 0.011052,0.0324537 0.01898,0.1483751 0.024837,0.36337817 0.00756,0.28343941 0.011233,0.32364101 0.035412,0.39316361 0.061663,0.1779192 0.1548484,0.2973473 0.4605429,0.5903135 0.1227514,0.1176369 0.3363093,0.3318342 0.4745764,0.475994 0.4479181,0.4670169 0.9661124,1.020625 0.9697291,1.0360113 0.00472,0.018546 -0.1421765,0.091349 -0.2491206,0.1237701 -0.1210036,0.03668 -0.2635295,0.053708 -0.3767439,0.045006 -0.1146869,-0.00882 -0.1277,-0.0142 -0.2176085,-0.090053 C 7.0942385,2.7967147 6.9259611,2.6337286 6.6001905,2.2544911 6.449213,2.0787267 6.389532,2.0275351 6.3079431,2.003818 6.2197443,1.9781756 6.1629903,1.9918092 5.9759399,2.0835799 5.7085091,2.2147834 5.484942,2.2863339 5.2089934,2.3290375 5.0248704,2.3575304 4.6061317,2.3571162 4.411895,2.3282484 4.1893854,2.2951782 4.0816293,2.2916443 3.9816449,2.3141377 3.7206827,2.3728456 3.5438689,2.5084873 3.2450678,2.8791861 2.9492879,3.2461372 2.6148579,3.6019977 2.1482234,4.0463032 1.7873713,4.3898972 0.89990164,5.1672282 0.8228641,5.2071821 0.7526078,5.2436005 0.66342556,5.2564203 0.59623736,5.2397579 Z"
       id="path424"
       sodipodi:nodetypes="cssssscsscscssssssssssscsssssccsscsscsssssscsscssscscssscsssssssssssssssssscc" /><path
       id="path402"
       d="m 6.236182,1.6263418 c -0.00513,-5.86e-5 -0.00842,5.592e-4 -0.013553,0.00152 -0.00125,2.733e-4 -0.00171,6.723e-4 -0.00328,0.00103 -0.00328,9.561e-4 -0.00698,0.0022 -0.010274,0.00377 -0.00122,5.879e-4 -0.00171,0.00113 -0.00328,0.00179 -0.00328,0.0024 -0.00842,0.00519 -0.012116,0.00875 -0.00328,0.00372 -0.00842,0.00871 -0.012115,0.014785 -0.00328,0.00608 -0.00698,0.013245 -0.010274,0.021354 0,8.4e-6 0,2e-5 0,2.86e-5 -0.00328,0.00812 -0.00698,0.017166 -0.010274,0.027031 0,9.3e-6 0,1.93e-5 0,2.85e-5 -0.00328,0.00986 -0.00698,0.020513 -0.00842,0.031785 0,9.7e-6 1.64e-5,1.9e-5 0,2.88e-5 -4.271e-4,0.00187 -7.515e-4,0.004 -0.00116,0.00589 -0.00513,0.021108 -0.00842,0.044011 -0.012116,0.068293 -0.00328,0.026472 -0.00513,0.054285 -0.00513,0.082181 0,0.036114 -7.188e-4,0.056155 -0.00513,0.065888 -0.00171,0.00485 -0.00328,0.00714 -0.00842,0.00759 -0.00171,2.162e-4 -0.00328,-3.21e-5 -0.00698,-6.581e-4 -0.00171,-6.221e-4 -0.00513,-0.00161 -0.00698,-0.00289 -0.022403,-0.010066 -0.0438,-0.014168 -0.064662,-0.01193 -0.00513,5.561e-4 -0.010274,0.00151 -0.0154,0.00286 -0.010274,0.00269 -0.020534,0.00698 -0.030617,0.012957 -0.00698,0.00431 -0.0154,0.00982 -0.02226,0.015894 -0.00328,0.00228 -0.00513,0.00439 -0.00842,0.00693 -0.00513,0.00463 -0.010274,0.00967 -0.0154,0.015134 0,1.05e-5 -1.85e-5,1.85e-5 -1.85e-5,2.88e-5 -0.020329,0.021933 -0.040883,0.050677 -0.062095,0.08659 0,7.6e-6 0,2.12e-5 0,2.86e-5 -0.010274,0.017968 -0.021377,0.03772 -0.032341,0.059301 -0.063307,0.1247372 -0.074416,0.2252077 -0.033533,0.3035527 0.0154,0.029356 0.022917,0.04423 0.023266,0.05177 6.98e-5,0.00188 -3.245e-4,0.00334 -0.00121,0.0044 -0.00328,0.00322 -0.00842,0.00337 -0.020124,0.00337 -0.00698,0 -0.01191,8.453e-4 -0.017043,0.0037 -0.00677,0.00476 -0.010274,0.015032 -0.01191,0.036165 -0.00103,0.033804 0.00677,0.09536 0.020719,0.2063101 0.00698,0.047909 0.013553,0.098102 0.021376,0.1498444 1.85e-5,9.9e-6 0,1.89e-5 0,2.88e-5 0.00842,0.051732 0.017249,0.1049871 0.025504,0.1590069 1.65e-5,9.1e-6 0,1.9e-5 0,2.84e-5 0.00842,0.054022 0.018892,0.108799 0.028749,0.1635593 0,9.2e-6 0,1.96e-5 0,2.87e-5 0.020328,0.1095313 0.041726,0.2190026 0.06382,0.3222225 0,8.8e-6 0,1.94e-5 0,2.85e-5 0.010274,0.051605 0.022054,0.1016489 0.033183,0.1493557 0,8.9e-6 0,2.01e-5 0,2.87e-5 0.022054,0.09542 0.0438,0.1815144 0.064149,0.2520682 0.056449,0.1965106 0.1166754,0.346407 0.2010301,0.4942861 1.64e-5,7.3e-6 0,2.14e-5 0,2.87e-5 0.02805,0.049295 0.058851,0.098351 0.093225,0.1488404 l 0.1218089,0.1795676 -0.057988,0.048476 c -0.010274,0.00818 -0.020719,0.018398 -0.032341,0.030295 -0.023266,0.023775 -0.049611,0.054168 -0.076654,0.087993 0,6.1e-6 1.83e-5,2.28e-5 0,2.86e-5 -0.040555,0.050738 -0.08263,0.1091685 -0.1182156,0.1644176 -0.023779,0.036837 -0.044498,0.072256 -0.060062,0.1030554 -0.026017,0.051638 -0.048399,0.1030711 -0.067742,0.1573456 -0.03883,0.1085507 -0.066017,0.2284602 -0.086901,0.384044 -0.010274,0.077794 -0.019302,0.164508 -0.027372,0.2631781 -0.029077,0.3586973 -0.043615,0.462261 -0.095464,0.6823282 -0.00842,0.034962 -0.017454,0.076888 -0.02653,0.1206654 -0.018275,0.08756 -0.036263,0.1825081 -0.046181,0.2438506 -0.00513,0.030666 -0.00862,0.052935 -0.00862,0.061679 0,0.00115 5.832e-4,0.00233 0.00169,0.00349 0.00349,0.00351 0.01191,0.00713 0.022917,0.010326 0,2.7e-6 1.85e-5,-3.3e-6 1.85e-5,0 0.0154,0.00431 0.036613,0.00801 0.060741,0.010201 0.057311,0.00521 0.1081133,0.01996 0.1702083,0.051886 1.65e-5,4.2e-6 3.3e-5,-4e-6 3.3e-5,0 0.037126,0.019179 0.078358,0.044523 0.1272711,0.077685 0.05577,0.037836 0.1584011,0.1016666 0.2579428,0.1616414 0,4.3e-6 1.84e-5,-4.4e-6 3.49e-5,0 0.09955,0.05997 0.1962868,0.1160944 0.2405297,0.1385055 l 0.07185,0.036453 -0.022937,0.044354 C 6.6706042,7.709037 6.6373999,7.7666064 6.5978921,7.8309996 6.5186917,7.9597904 6.4143162,8.1158614 6.3067414,8.2659266 6.2530239,8.3409593 6.1984442,8.4144897 6.1459176,8.4823728 5.994683,8.6776534 5.871839,8.8542465 5.8309697,8.9348537 5.8114631,8.9732322 5.797273,9.0072779 5.785815,9.0475246 5.766923,9.1146096 5.755877,9.1989441 5.742713,9.3492443 5.730803,9.4910949 5.713124,9.636659 5.690885,9.7882098 c 0,8.3e-6 0,1.85e-5 0,2.88e-5 C 5.624006,10.242886 5.51078,10.751319 5.3391753,11.374209 l -0.027208,0.09896 h 0.044826 c 0.0154,0 0.026345,1.67e-4 0.031828,0.0021 0.00171,6.33e-4 0.00349,0.0015 0.00349,0.0025 7.515e-4,10e-4 0.00101,0.0025 8.028e-4,0.0041 -1.026e-4,0.001 -7.699e-4,0.0025 -0.00128,0.0038 -2.732e-4,6.88e-4 -2.732e-4,0.0011 -6.654e-4,0.002 0,9e-6 1.64e-5,1.8e-5 0,2.8e-5 -0.00171,0.0046 -0.00677,0.01066 -0.01191,0.01849 -0.00349,0.0063 -0.00862,0.01272 -0.0154,0.0191 -0.029426,0.03195 -0.081603,0.06522 -0.162857,0.103631 -0.032506,0.01541 -0.069632,0.03156 -0.1118911,0.04883 -0.1745616,0.07135 -0.2354496,0.09938 -0.2650804,0.133124 0,7e-6 -1.66e-5,1.9e-5 -1.66e-5,2.9e-5 -0.010274,0.01133 -0.017043,0.02312 -0.022239,0.03744 -0.00862,0.02087 -0.013758,0.03768 -0.013758,0.05146 -4.456e-4,0.01028 0.00171,0.0189 0.00678,0.02631 0.00349,0.0049 0.00862,0.0092 0.0154,0.01314 0.00349,0.002 0.00678,0.0038 0.010274,0.0055 0,4e-6 1.85e-5,-4e-6 3.49e-5,0 0.00349,0.0011 0.00677,0.0021 0.010274,0.003 0.0154,0.0055 0.033882,0.01028 0.058851,0.01438 0.0154,0.0025 0.031828,0.0049 0.050802,0.0074 0.022239,0.0028 0.0438,0.0053 0.065011,0.0076 0.04226,0.0043 0.08263,0.0072 0.1211109,0.0086 0.038481,0.0015 0.075094,0.0015 0.1100016,-2.9e-5 0.034908,-0.0015 0.068091,-0.0046 0.09957,-0.0088 0.094766,-0.01335 0.1750749,-0.03994 0.2446181,-0.08071 0.023266,-0.01356 0.045155,-0.02872 0.066039,-0.04549 0.010274,-0.0084 0.020719,-0.01726 0.030617,-0.02633 0.040883,-0.03774 0.057311,-0.05002 0.067742,-0.04522 0.00171,7.97e-4 0.00349,0.0021 0.00513,0.0038 0.00149,0.0017 0.00349,0.0038 0.00513,0.0063 0.00349,0.0055 0.00678,0.01066 0.01191,0.01541 0.010274,0.0095 0.023102,0.01766 0.040206,0.02446 0.00862,0.0033 0.01807,0.0063 0.028399,0.009 0,2e-6 1.64e-5,-2e-6 1.64e-5,0 0.010274,0.0027 0.021828,0.0049 0.034047,0.0071 0,0 1.65e-5,-2e-6 1.65e-5,0 0.024621,0.0041 0.05304,0.0065 0.085196,0.008 0.0154,6.63e-4 0.033348,10e-4 0.051336,10e-4 0.064847,0 0.1055459,-1.67e-4 0.1295094,-0.01008 0.00842,-0.0033 0.013553,-0.0076 0.018686,-0.01335 0.00171,-0.0028 0.00328,-0.0061 0.00513,-0.0099 0.00155,-0.0037 0.00328,-0.0076 0.00328,-0.01211 0,-8e-6 0,-2e-5 0,-2.8e-5 0.00171,-0.009 0.00171,-0.01971 0.00169,-0.03253 -0.00108,-0.02571 -0.00698,-0.05992 -0.013553,-0.105402 -0.019096,-0.126492 -0.024106,-0.155425 -0.010274,-0.165773 0.00513,-0.0035 0.010274,-0.0048 0.019507,-0.0072 0.00842,-0.0023 0.013553,-0.0055 0.018892,-0.01088 0.00151,-0.0018 0.00328,-0.0037 0.00328,-0.0061 0.00513,-0.009 0.00698,-0.02224 0.00698,-0.04146 0,-0.08803 0.055421,-0.374434 0.132569,-0.685421 0.057639,-0.232107 0.098708,-0.406715 0.127456,-0.549494 0.048071,-0.2379651 0.062095,-0.3874893 0.06228,-0.5673322 l 2.751e-4,-0.1863298 0.047742,-0.03651 c 0.02616,-0.020124 0.1168399,-0.087826 0.2015847,-0.1505365 0.02653,-0.019507 0.054909,-0.042075 0.084683,-0.066839 C 6.935527,9.1228727 7.0373764,9.0281068 7.1362014,8.928448 7.2679286,8.795571 7.3943168,8.6540162 7.4785031,8.5407965 c 0.037475,-0.050389 0.072362,-0.095876 0.098543,-0.1285709 1.64e-5,-7e-6 0,-2.09e-5 0,-2.81e-5 0.010274,-0.013491 0.018892,-0.023177 0.026181,-0.031756 0.00155,-0.00183 0.00328,-0.00511 0.00513,-0.0067 0.00842,-0.00898 0.012116,-0.013717 0.013553,-0.013306 0.00108,3.878e-4 0.00328,0.0049 0.00698,0.012751 1.85e-5,1.32e-5 0,1.54e-5 0,2.86e-5 0.00328,0.00786 0.00842,0.019015 0.013553,0.03267 1.85e-5,10e-6 0,1.89e-5 0,2.9e-5 0.012116,0.027335 0.026345,0.064643 0.041746,0.1053157 0.010274,0.027009 0.020328,0.052622 0.02996,0.077055 0.019507,0.048873 0.038502,0.09304 0.057824,0.1342119 0.048071,0.102938 0.098009,0.1872925 0.1635551,0.2801012 0.027886,0.039549 0.053698,0.076941 0.077845,0.1127129 0.096162,0.1430825 0.1633704,0.2602261 0.2187121,0.3851605 0.041581,0.093698 0.07647,0.1917898 0.1118706,0.3084779 0.017249,0.056449 0.040883,0.1291807 0.06536,0.2009278 0,8e-6 0,2e-5 0,2.8e-5 0.024476,0.07173 0.049611,0.142487 0.069447,0.194891 0.058851,0.154992 0.105895,0.285601 0.1431851,0.40383 0.027886,0.08866 0.050453,0.170372 0.06842,0.25015 0.012116,0.05319 0.022054,0.105526 0.030452,0.158484 0.00328,0.02649 0.00842,0.05312 0.012116,0.08012 0,1e-5 0,2.1e-5 0,2.8e-5 0.00698,0.05399 0.012115,0.109369 0.0154,0.167621 0.00328,0.05826 0.00698,0.119387 0.00842,0.184911 0.00162,0.06553 0.00171,0.135446 0.00171,0.211236 l -2.238e-4,0.371501 0.056449,-0.0053 c 0.030966,-0.0028 0.056449,-0.0038 0.056449,-0.0023 0,0.0017 -0.052855,0.08562 -0.1173531,0.186452 -0.062095,0.09702 -0.096655,0.157435 -0.1091594,0.19836 0,6e-6 0,2.3e-5 0,2.9e-5 -0.00154,0.0051 -0.00328,0.01008 -0.00328,0.01438 0,7e-6 0,1.6e-5 0,2.6e-5 -0.00328,0.01356 -0.00171,0.02477 0.00106,0.03437 0.00171,0.0061 0.00513,0.01232 0.010274,0.01745 0.00513,0.0053 0.010274,0.01008 0.017249,0.01498 v -3.1e-5 c 0.00513,0.0035 0.00842,0.0068 0.013553,0.009 0,4e-6 1.43e-5,-2e-6 1.43e-5,0 0.00842,0.0053 0.0154,0.0086 0.024477,0.01043 0.022588,0.0046 0.057147,-0.0023 0.1501874,-0.01991 0.0354,-0.0068 0.074087,-0.01581 0.1130823,-0.02686 0.117538,-0.03259 0.2398296,-0.07962 0.2925553,-0.115053 0.027023,-0.01827 0.071686,-0.06657 0.099036,-0.107578 0.017254,-0.02454 0.028235,-0.04101 0.038643,-0.05178 0.00696,-0.0072 0.013556,-0.01192 0.019509,-0.01457 0.010284,-0.0038 0.019914,-0.0038 0.03372,-0.0021 0.021825,0.0033 0.037636,0.003 0.048917,-0.0037 0.00332,-0.0021 0.00696,-0.0043 0.00841,-0.0078 0.00166,-0.0025 0.00332,-0.0051 0.00509,-0.0084 0,-1e-5 1.66e-5,-2e-5 1.66e-5,-3e-5 0.00696,-0.01581 0.010284,-0.04197 0.00841,-0.08292 0,-9e-6 0,-2.3e-5 0,-2.9e-5 -7.023e-4,-0.03274 -0.00332,-0.07503 -0.00841,-0.129222 -0.00332,-0.04579 -0.00696,-0.08084 -0.00841,-0.108179 0,-1.1e-5 0,-1.8e-5 0,-2.8e-5 -0.00166,-0.02733 -0.00166,-0.04696 -0.00125,-0.062 0,-1.2e-5 0,-1.8e-5 0,-2.8e-5 4.457e-4,-0.0076 0.00125,-0.01396 0.00166,-0.01951 0,-10e-6 0,-1.8e-5 0,-2.9e-5 0.00332,-0.01684 0.010284,-0.02659 0.020537,-0.0399 0.015405,-0.02054 0.029263,-0.05811 0.029263,-0.08364 0,-0.0316 -0.015405,-0.134499 -0.037293,-0.253327 -0.010284,-0.05941 -0.022916,-0.122796 -0.035257,-0.183269 -0.012112,-0.06045 -0.024994,-0.117968 -0.036431,-0.165649 -0.013567,-0.05621 -0.037812,-0.140116 -0.068613,-0.23938 -0.015405,-0.04965 -0.032504,-0.103122 -0.050642,-0.158915 -0.00509,-0.01396 -0.010274,-0.02889 -0.013553,-0.04306 -0.03267,-0.09951 -0.068091,-0.204008 -0.1040054,-0.307104 -0.020534,-0.05887 -0.041232,-0.117004 -0.061417,-0.172837 -1.85e-5,-1.2e-5 -3.69e-5,-1.6e-5 -3.69e-5,-2.9e-5 C 9.1111983,9.9921202 9.0725528,9.889599 9.0396981,9.808538 8.9753643,9.6497468 8.932263,9.5420302 8.8988949,9.4513531 8.8655472,9.3606738 8.8419328,9.2870382 8.8166142,9.1964206 8.7995708,9.1360089 8.7820551,9.0680405 8.7601656,8.9824661 8.7155243,8.8080381 8.6660572,8.6157055 8.6499789,8.5552289 8.6345783,8.4947535 8.6077194,8.3154885 8.5916412,8.1568677 8.5762405,7.9982448 8.5498951,7.8198375 8.5346791,7.7603968 8.4932822,7.5983776 8.405868,7.3722651 8.31285,7.179406 8.29745,7.14727 8.28172,7.116068 8.266155,7.08623 c 0,-7.6e-6 0,-2.1e-5 0,-2.88e-5 -0.0154,-0.029845 -0.031315,-0.058311 -0.04653,-0.084958 L 8.1561532,6.8912306 8.1301363,6.6273362 C 8.1165841,6.482192 8.1055157,6.3408927 8.1070354,6.3133321 c 3.943e-4,-0.00665 0.00328,-0.019344 0.00842,-0.036539 0.00513,-0.017166 0.012116,-0.038846 0.020329,-0.063368 0,-7.8e-6 0,-2.06e-5 0,-2.84e-5 0.017043,-0.049065 0.038645,-0.1096467 0.061418,-0.1690008 0.045504,-0.1187269 0.09341,-0.2325683 0.1047037,-0.2396119 0.00698,-0.00453 0.01766,-0.00314 0.036613,0.00837 0.018892,0.011499 0.046366,0.033091 0.088112,0.068926 0.027721,0.023886 0.06193,0.054108 0.1040054,0.091886 0.044989,0.040458 0.092896,0.08632 0.1408033,0.1345239 0.047906,0.0482 0.095977,0.098745 0.1411316,0.1485528 0,5.8e-6 0,2.4e-5 0,2.9e-5 0.022588,0.024903 0.044498,0.049607 0.06536,0.073761 0,4.8e-6 0,2.33e-5 0,2.83e-5 0.041746,0.048314 0.079385,0.094348 0.1100015,0.1350679 0,5.8e-6 0,2.35e-5 0,2.88e-5 0.0154,0.020349 0.028913,0.039388 0.040556,0.056696 0.013553,0.02131 0.027722,0.043327 0.04037,0.066116 1.85e-5,7.4e-6 0,2.18e-5 0,2.91e-5 0.06382,0.1139423 0.1098168,0.2466569 0.1388935,0.4009953 0.00513,0.030869 0.010274,0.062586 0.0154,0.095208 0.00513,0.032633 0.00842,0.066132 0.012116,0.1005644 0.00171,0.0216 0.00328,0.039681 0.00698,0.054693 0.00698,0.045039 0.013553,0.06239 0.026509,0.063998 0.012116,0.00158 0.046695,0.00691 0.076984,0.011828 l 0.055098,0.00899 -0.023591,0.04696 c -0.00696,0.012916 -0.018688,0.032103 -0.032857,0.052602 -0.013556,0.020513 -0.030617,0.04232 -0.045668,0.060502 -0.00698,0.00908 -0.0154,0.019507 -0.023779,0.030553 -0.017249,0.022089 -0.033019,0.046697 -0.046038,0.068207 -0.00698,0.010757 -0.012116,0.020731 -0.017249,0.029237 -0.00513,0.00865 -0.00842,0.019487 -0.013553,0.032015 -0.019507,0.050081 -0.041397,0.1268111 -0.056634,0.1945414 -0.00328,0.016941 -0.00698,0.033312 -0.010274,0.048566 -0.00513,0.030502 -0.00842,0.056524 -0.00842,0.073617 -1.85e-5,0.00801 5.668e-4,0.01577 0.00164,0.023135 0.00328,0.022155 0.012116,0.041166 0.023266,0.055693 0.00842,0.00969 0.017454,0.017372 0.028235,0.022623 0,4e-6 1.45e-5,-3.3e-6 1.45e-5,0 0.0014,6.816e-4 0.00328,9.753e-4 0.00513,0.00158 0.010274,0.00402 0.020329,0.00652 0.031479,0.00652 0.017454,0 0.030451,-0.00324 0.0438,-0.012957 0.00328,-0.00242 0.00698,-0.00528 0.010274,-0.00855 0.00328,-0.00328 0.00698,-0.00703 0.010274,-0.011278 0,-4.5e-6 0,-2.38e-5 0,-2.83e-5 0.00698,-0.00848 0.0154,-0.018974 0.024476,-0.031898 0.013553,-0.019528 0.025504,-0.033972 0.03764,-0.045129 0.00332,-0.00372 0.00841,-0.00708 0.012113,-0.010149 0.017254,-0.012217 0.036098,-0.01963 0.063305,-0.026487 0.012112,-0.00309 0.024287,-0.00655 0.036098,-0.010406 0.023778,-0.00774 0.046694,-0.017064 0.068935,-0.027833 0.010284,-0.00538 0.022054,-0.011131 0.03267,-0.017228 0.042591,-0.024389 0.081764,-0.054336 0.116163,-0.088823 0.017452,-0.017227 0.033346,-0.035596 0.048076,-0.054978 0,-6.2e-6 0,-2.28e-5 0,-2.88e-5 0.022262,-0.029075 0.041573,-0.060409 0.057633,-0.093605 0,-7.8e-6 0,-2.04e-5 0,-2.88e-5 0.01028,-0.022134 0.02012,-0.045081 0.02753,-0.068721 0.0033,-0.011849 0.0071,-0.023821 0.01028,-0.035992 0.0071,-0.028588 0.01028,-0.048215 0.0071,-0.074967 -0.0033,-0.026752 -0.01356,-0.060628 -0.0337,-0.1177453 l -0.043649,-0.128451 0.058495,-0.029837 c 0.0154,-0.00822 0.03148,-0.017844 0.04344,-0.026743 0.01211,-0.00891 0.02033,-0.017085 0.02242,-0.022392 10e-4,-0.00265 9.06e-4,-0.00823 -1.72e-4,-0.016038 0,-7.1e-6 0,-2.12e-5 0,-2.81e-5 -0.0033,-0.023428 -0.01541,-0.066886 -0.03061,-0.1115602 C 9.814207,6.9399806 9.7704626,6.7955893 9.7381247,6.6786688 9.6719218,6.4397 9.5865416,6.2463612 9.4775618,6.0888015 9.4706019,6.078829 9.4621564,6.0674458 9.4522462,6.0547848 9.4419621,6.0421353 9.4308677,6.0282445 9.4181943,6.0132649 9.3927955,5.9833111 9.3623171,5.9490399 9.3283171,5.9118217 9.2942856,5.8746233 9.2564821,5.8344912 9.2164403,5.7928027 9.0161905,5.5843527 8.7584057,5.3372722 8.6159886,5.2249548 8.4772387,5.1155504 8.3544153,5.0234462 8.2498714,4.9502369 8.1802399,4.9014311 8.1186577,4.8610136 8.0658642,4.8294566 c 0,-4.7e-6 -1.65e-5,5e-6 -1.65e-5,0 -0.026345,-0.01577 -0.050453,-0.029341 -0.072362,-0.040631 -0.010274,-0.00564 -0.021376,-0.010722 -0.03113,-0.015215 -0.019507,-0.00899 -0.036777,-0.015729 -0.0515,-0.020061 -1.84e-5,-2.8e-6 -3.28e-5,3.1e-6 -3.28e-5,0 -0.00698,-0.00217 -0.013553,-0.00374 -0.020328,-0.00473 -0.00698,-0.0012 -0.0154,-0.00314 -0.024806,-0.00557 -0.017864,-0.0049 -0.036941,-0.01191 -0.053369,-0.019446 -0.00842,-0.00376 -0.0154,-0.00764 -0.022054,-0.011458 -0.010274,-0.00612 -0.018275,-0.010274 -0.024477,-0.016058 -0.00171,-0.00194 -0.00328,-0.00402 -0.00513,-0.00645 -1.85e-5,-9.9e-6 -3.49e-5,-1.88e-5 -3.49e-5,-2.86e-5 -8.049e-4,-0.00122 -0.00138,-0.00278 -0.00171,-0.00418 -7.023e-4,-0.00139 -0.00151,-0.00261 -0.00171,-0.00421 -2.238e-4,-6.458e-4 -3.429e-4,-0.00155 -5.832e-4,-0.00225 -0.00171,-0.00608 -0.00328,-0.013491 -0.00328,-0.023479 -6.838e-4,-0.016653 7.864e-4,-0.039796 0.00513,-0.073076 0,-7.8e-6 0,-2.1e-5 0,-2.88e-5 0.00171,-0.022178 0.00698,-0.048857 0.010274,-0.081123 0.00842,-0.064528 0.022752,-0.1513743 0.040719,-0.2691344 0.020329,-0.1316943 0.030966,-0.208321 0.034887,-0.2595418 9.754e-4,-0.012814 0.00149,-0.024013 0.00161,-0.034103 3.245e-4,-0.030268 -0.00328,-0.050395 -0.00842,-0.072874 -0.012116,-0.043707 -0.025319,-0.080231 -0.041581,-0.1106998 -0.00513,-0.010149 -0.010274,-0.019611 -0.017249,-0.028465 -0.024107,-0.035391 -0.053369,-0.060656 -0.089652,-0.078402 -0.019919,-0.00969 -0.047557,-0.018789 -0.080413,-0.026887 -0.017249,-0.00405 -0.034046,-0.00786 -0.052526,-0.011334 -1.65e-5,-1.4e-6 -1.65e-5,1.7e-6 -3.29e-5,0 -0.055422,-0.01045 -0.1183799,-0.018152 -0.178689,-0.021555 0,-5e-7 -1.43e-5,7e-7 -3.27e-5,0 -0.040185,-0.00228 -0.079015,-0.00263 -0.1137597,-6.873e-4 -0.096306,0.00544 -0.1026514,0.00822 -0.1781345,0.078143 -0.018892,0.017413 -0.0354,0.033232 -0.050123,0.048136 -0.022034,0.022351 -0.039672,0.042614 -0.053553,0.063052 -0.051151,0.074934 -0.052526,0.1520869 -0.039015,0.3421807 0.00171,0.030229 0.00513,0.055919 0.00698,0.077913 3.265e-4,0.00321 8.05e-4,0.00507 0.00116,0.00812 0.00328,0.028342 0.00698,0.051386 0.012116,0.06861 0.00328,0.012732 0.00698,0.022947 0.012115,0.031527 0.00171,0.0043 0.00513,0.00818 0.00698,0.011725 0.00328,0.00506 0.00698,0.010473 0.010274,0.016058 0.00328,0.00561 0.00698,0.011396 0.010274,0.017207 0.00842,0.017434 0.0154,0.035048 0.01848,0.048306 9.917e-4,0.0044 0.00154,0.00835 0.00164,0.011622 0,7.8e-6 0,2.06e-5 0,2.84e-5 1.705e-4,0.00652 -0.00149,0.010519 -0.00513,0.010519 -0.00164,0 -0.00328,-6.63e-5 -0.00513,-0.00114 C 7.010829,4.418706 7.009259,4.416596 7.005559,4.412596 6.998579,4.404586 6.98831,4.388793 6.969974,4.357819 6.9323067,4.2958896 6.8611562,4.1731551 6.7202827,3.9299567 6.6407126,3.7926629 6.5851469,3.6954372 6.5445712,3.6201903 6.5310183,3.5950974 6.5192528,3.5724529 6.508657,3.5515811 6.4983833,3.5307157 6.488738,3.5116391 6.4806073,3.4936533 6.4633579,3.4576785 6.4515312,3.4261218 6.4400524,3.3936332 6.4349207,3.3773697 6.4297787,3.3609047 6.4228031,3.3435214 6.3586539,3.1384727 6.3518155,3.0883718 6.347545,2.7935988 c -0.00162,-0.1125723 -0.00171,-0.1798861 -0.00328,-0.2200559 -5.996e-4,-0.013389 -0.00134,-0.023759 -0.00171,-0.031785 0,-1.25e-5 0,-1.62e-5 0,-2.87e-5 -0.0014,-0.012032 -0.00328,-0.018768 -0.00513,-0.022535 0,-6.4e-6 0,-2.23e-5 0,-2.84e-5 -0.00513,-0.00626 -0.010274,-0.00412 -0.020329,-0.00412 -0.00842,4e-7 -0.0154,-0.00387 -0.018275,-0.028693 -0.00328,-0.02483 -0.00513,-0.070649 -0.00513,-0.1545118 5.13e-5,-0.055908 7.207e-4,-0.1287354 0.00171,-0.2235487 0.00171,-0.167814 0.0013,-0.3208346 -9.24e-4,-0.3942951 -7.373e-4,-0.024491 -0.00165,-0.040138 -0.00328,-0.044554 -0.00125,-0.00496 -0.00328,-0.00934 -0.00513,-0.013511 -4.415e-4,-8.543e-4 -8.543e-4,-0.0017 -0.00134,-0.00252 -0.00111,-0.00188 -0.00171,-0.00339 -0.00328,-0.00509 -0.00171,-0.00316 -0.00513,-0.00606 -0.00842,-0.00855 -0.00151,-0.00133 -0.00328,-0.00256 -0.00513,-0.00365 -0.00328,-0.00213 -0.00698,-0.00386 -0.010274,-0.0053 -0.00161,-6.799e-4 -0.00328,-0.00149 -0.00513,-0.002 -0.00513,-0.00164 -0.010274,-0.00273 -0.0154,-0.00282 z"
       style="stroke-width:0.055411" /><path
       id="path402-3-6"
       d="m 6.2361406,1.6239802 c -0.0051,-5.86e-5 -0.0084,5.592e-4 -0.01355,0.00152 -0.0013,2.733e-4 -0.0017,6.723e-4 -0.0033,0.00103 -0.0033,9.561e-4 -0.007,0.0022 -0.01027,0.00377 -0.0012,5.879e-4 -0.0017,0.00113 -0.0033,0.00179 -0.0033,0.0024 -0.0084,0.00519 -0.01212,0.00875 -0.0033,0.00372 -0.0084,0.00871 -0.01211,0.014785 -0.0033,0.00608 -0.007,0.013245 -0.01027,0.021354 0,8.4e-6 0,2e-5 0,2.86e-5 -0.0033,0.00812 -0.007,0.017166 -0.01027,0.027031 0,9.3e-6 0,1.93e-5 0,2.85e-5 -0.0033,0.00986 -0.007,0.020513 -0.0084,0.031785 0,9.7e-6 1.6e-5,1.9e-5 0,2.88e-5 -4.27e-4,0.00187 -7.52e-4,0.004 -0.0012,0.00589 -0.0051,0.021108 -0.0084,0.044011 -0.01212,0.068293 -0.0033,0.026472 -0.0051,0.054285 -0.0051,0.082181 0,0.036114 -7.19e-4,0.056155 -0.0051,0.065888 -0.0017,0.00485 -0.0033,0.00714 -0.0084,0.00759 -0.0017,2.162e-4 -0.0033,-3.21e-5 -0.007,-6.581e-4 -0.0017,-6.221e-4 -0.0051,-0.00161 -0.007,-0.00289 -0.0224,-0.010066 -0.0438,-0.014168 -0.06466,-0.01193 -0.0051,5.561e-4 -0.01027,0.00151 -0.0154,0.00286 -0.01027,0.00269 -0.02053,0.00698 -0.03062,0.012957 -0.007,0.00431 -0.0154,0.00982 -0.02226,0.015894 -0.0033,0.00228 -0.0051,0.00439 -0.0084,0.00693 -0.0051,0.00463 -0.01027,0.00967 -0.0154,0.015134 0,1.05e-5 -1.9e-5,1.85e-5 -1.9e-5,2.88e-5 -0.02033,0.021933 -0.04088,0.050677 -0.0621,0.08659 0,7.6e-6 0,2.12e-5 0,2.86e-5 -0.01027,0.017968 -0.02138,0.03772 -0.03234,0.059301 -0.06331,0.1247372 -0.07442,0.2252077 -0.03353,0.3035527 0.0154,0.029356 0.02292,0.04423 0.02327,0.05177 7e-5,0.00188 -3.24e-4,0.00334 -0.0012,0.0044 -0.0033,0.00322 -0.0084,0.00337 -0.02012,0.00337 -0.007,0 -0.01191,8.453e-4 -0.01704,0.0037 -0.0068,0.00476 -0.01027,0.015032 -0.01191,0.036165 -0.001,0.033804 0.0068,0.09536 0.02072,0.2063101 0.007,0.047909 0.01355,0.098102 0.02138,0.1498444 1.9e-5,9.9e-6 0,1.89e-5 0,2.88e-5 0.0084,0.051732 0.01725,0.1049871 0.0255,0.1590069 1.7e-5,9.1e-6 0,1.9e-5 0,2.84e-5 0.0084,0.054022 0.01889,0.108799 0.02875,0.1635593 0,9.2e-6 0,1.96e-5 0,2.87e-5 0.02033,0.1095313 0.04173,0.2190026 0.06382,0.3222225 0,8.8e-6 0,1.94e-5 0,2.85e-5 0.01027,0.051605 0.02205,0.1016489 0.03318,0.1493557 0,8.9e-6 0,2.01e-5 0,2.87e-5 0.02205,0.09542 0.0438,0.1815144 0.06415,0.2520682 0.05645,0.1965106 0.116676,0.346407 0.20103,0.4942861 1.7e-5,7.3e-6 0,2.14e-5 0,2.87e-5 0.02805,0.049295 0.05885,0.098351 0.09322,0.1488404 l 0.121809,0.1795676 -0.05799,0.048476 c -0.01027,0.00818 -0.02072,0.018398 -0.03234,0.030295 -0.02327,0.023775 -0.04961,0.054168 -0.07665,0.087993 0,6.1e-6 1.9e-5,2.28e-5 0,2.86e-5 -0.04055,0.050738 -0.08263,0.1091685 -0.118215,0.1644176 -0.02378,0.036837 -0.0445,0.072256 -0.06006,0.1030554 -0.02602,0.051638 -0.0484,0.1030711 -0.06774,0.1573456 -0.03883,0.1085507 -0.06602,0.2284602 -0.0869,0.384044 -0.01027,0.077794 -0.0193,0.164508 -0.02737,0.2631781 -0.02908,0.3586973 -0.04362,0.462261 -0.09546,0.6823282 -0.0084,0.034962 -0.01745,0.076888 -0.02653,0.1206654 -0.01827,0.08756 -0.03626,0.1825081 -0.046181,0.2438506 -0.00513,0.030666 -0.00862,0.052935 -0.00862,0.061679 0,0.00115 5.832e-4,0.00233 0.00169,0.00349 0.00349,0.00351 0.01191,0.00713 0.022917,0.010326 0,2.7e-6 1.8e-5,-3.3e-6 1.8e-5,0 0.0154,0.00431 0.03661,0.00801 0.06074,0.010201 0.05731,0.00521 0.108113,0.01996 0.170208,0.051886 1.7e-5,4.2e-6 3.3e-5,-4e-6 3.3e-5,0 0.03713,0.019179 0.07836,0.044523 0.127272,0.077685 0.05577,0.037836 0.158401,0.1016666 0.257942,0.1616414 0,4.3e-6 1.9e-5,-4.4e-6 3.5e-5,0 0.09955,0.05997 0.196287,0.1160944 0.24053,0.1385055 l 0.07185,0.036453 -0.02294,0.044354 c -0.0241,0.046618 -0.0573,0.1041873 -0.09681,0.1685805 -0.0792,0.1287908 -0.183576,0.2848618 -0.291151,0.434927 -0.05372,0.075033 -0.108297,0.1485631 -0.160824,0.2164461 -0.151234,0.195281 -0.274078,0.371874 -0.314947,0.452481 -0.01951,0.03838 -0.0337,0.07242 -0.04515,0.112671 -0.018892,0.06709 -0.029938,0.151419 -0.043102,0.301719 -0.01191,0.141852 -0.029589,0.287415 -0.051828,0.438966 0,9.1e-6 0,1.91e-5 0,2.8e-5 -0.066879,0.4546479 -0.180105,0.9630819 -0.3517097,1.5859719 l -0.027208,0.09896 h 0.044826 c 0.0154,0 0.026345,1.67e-4 0.031828,0.0021 0.00171,6.33e-4 0.00349,0.0015 0.00349,0.0025 7.515e-4,10e-4 0.00101,0.0025 8.028e-4,0.0041 -1.026e-4,0.001 -7.699e-4,0.0025 -0.00128,0.0038 -2.732e-4,6.88e-4 -2.732e-4,0.0011 -6.654e-4,0.002 0,9e-6 1.64e-5,1.8e-5 0,2.8e-5 -0.00171,0.0046 -0.00677,0.01066 -0.01191,0.01849 -0.00349,0.0063 -0.00862,0.01272 -0.0154,0.0191 -0.029426,0.03195 -0.081603,0.06522 -0.162857,0.103631 -0.032506,0.01541 -0.069632,0.03156 -0.1118911,0.04883 -0.1745616,0.07135 -0.2354496,0.09938 -0.2650804,0.133124 0,7e-6 -1.66e-5,1.9e-5 -1.66e-5,2.9e-5 -0.010274,0.01133 -0.017043,0.02312 -0.022239,0.03744 -0.00862,0.02087 -0.013758,0.03768 -0.013758,0.05146 -4.456e-4,0.01028 0.00171,0.0189 0.00678,0.02631 0.00349,0.0049 0.00862,0.0092 0.0154,0.01314 0.00349,0.002 0.00678,0.0038 0.010274,0.0055 0,4e-6 1.85e-5,-4e-6 3.49e-5,0 0.00349,0.0011 0.00677,0.0021 0.010274,0.003 0.0154,0.0055 0.033882,0.01028 0.058851,0.01438 0.0154,0.0025 0.031828,0.0049 0.050802,0.0074 0.022239,0.0028 0.0438,0.0053 0.065011,0.0076 0.04226,0.0043 0.08263,0.0072 0.1211109,0.0086 0.038481,0.0015 0.075094,0.0015 0.1100016,-2.9e-5 0.034908,-0.0015 0.068091,-0.0046 0.09957,-0.0088 0.094766,-0.01335 0.1750749,-0.03994 0.2446181,-0.08071 0.023266,-0.01356 0.045155,-0.02872 0.066039,-0.04549 0.010274,-0.0084 0.020719,-0.01726 0.030617,-0.02633 0.040883,-0.03774 0.057311,-0.05002 0.067742,-0.04522 0.00171,7.97e-4 0.00349,0.0021 0.00513,0.0038 0.00149,0.0017 0.00349,0.0038 0.00513,0.0063 0.00349,0.0055 0.00678,0.01066 0.01191,0.01541 0.010274,0.0095 0.023102,0.01766 0.040206,0.02446 0.0086,0.0033 0.01807,0.0063 0.0284,0.009 0,2e-6 1.6e-5,-2e-6 1.6e-5,0 0.01027,0.0027 0.02183,0.0049 0.03405,0.0071 0,0 1.7e-5,-2e-6 1.7e-5,0 0.02462,0.0041 0.05304,0.0065 0.0852,0.008 0.0154,6.63e-4 0.03335,10e-4 0.05134,10e-4 0.06485,0 0.105546,-1.67e-4 0.129509,-0.01008 0.0084,-0.0033 0.01355,-0.0076 0.01869,-0.01335 0.0017,-0.0028 0.0033,-0.0061 0.0051,-0.0099 0.0015,-0.0037 0.0033,-0.0076 0.0033,-0.01211 0,-8e-6 0,-2e-5 0,-2.9e-5 0.0017,-0.009 0.0017,-0.01971 0.0017,-0.03253 -0.0011,-0.02571 -0.007,-0.05992 -0.01355,-0.105402 -0.0191,-0.126493 -0.02411,-0.155425 -0.01027,-0.165773 0.0051,-0.0035 0.01027,-0.0048 0.01951,-0.0072 0.0084,-0.0023 0.01355,-0.0055 0.01889,-0.01088 0.0015,-0.0018 0.0033,-0.0037 0.0033,-0.0061 0.0051,-0.009 0.007,-0.02224 0.007,-0.04146 0,-0.08803 0.05542,-0.374435 0.132569,-0.685421 0.05764,-0.232107 0.09871,-0.406716 0.127456,-0.549495 0.04807,-0.2379649 0.0621,-0.3874889 0.06228,-0.5673309 l 2.75e-4,-0.1863309 0.04774,-0.03651 c 0.02616,-0.02012 0.11684,-0.08783 0.201585,-0.1505361 0.02653,-0.01951 0.05491,-0.04208 0.08468,-0.06684 0.08948,-0.07407 0.19133,-0.16884 0.290155,-0.2684989 0.131727,-0.132877 0.258116,-0.2744321 0.342302,-0.3876511 0.03747,-0.05039 0.07236,-0.09588 0.09854,-0.1285709 1.6e-5,-7.1e-6 0,-2.11e-5 0,-2.81e-5 0.01027,-0.01349 0.01889,-0.02318 0.02618,-0.03176 0.0015,-0.0018 0.0033,-0.0051 0.0051,-0.0067 0.0084,-0.009 0.01212,-0.01372 0.01355,-0.01331 0.0011,3.879e-4 0.0033,0.0049 0.007,0.01275 1.8e-5,1.3e-5 0,1.5e-5 0,2.8e-5 0.0033,0.0079 0.0084,0.01902 0.01355,0.03267 1.8e-5,10e-6 0,1.89e-5 0,2.89e-5 0.01212,0.02734 0.02635,0.06464 0.04175,0.1053161 0.01027,0.02701 0.02033,0.05262 0.02996,0.07705 0.01951,0.04887 0.0385,0.09304 0.05782,0.1342119 0.04807,0.102938 0.09801,0.187293 0.163555,0.2801011 0.02789,0.03955 0.0537,0.07694 0.07784,0.1127129 0.09616,0.1430831 0.16337,0.260227 0.218712,0.385161 0.04158,0.0937 0.07647,0.191789 0.111871,0.308477 0.01725,0.05645 0.04088,0.129182 0.06536,0.200928 0,8e-6 0,2e-5 0,2.8e-5 0.02448,0.07173 0.04961,0.142487 0.06945,0.194891 0.05885,0.154992 0.105895,0.285602 0.143185,0.403831 0.02789,0.08866 0.05045,0.170372 0.06842,0.25015 0.01212,0.05319 0.02205,0.105526 0.03045,0.158484 0.0033,0.02649 0.0084,0.05312 0.01212,0.08012 0,10e-6 0,2.1e-5 0,2.8e-5 0.007,0.05399 0.01211,0.109369 0.0154,0.167621 0.0033,0.05826 0.007,0.119387 0.0084,0.184911 0.0016,0.06553 0.0017,0.135446 0.0017,0.211236 l -2.24e-4,0.371501 0.05645,-0.0053 c 0.03097,-0.0028 0.05645,-0.0038 0.05645,-0.0023 0,0.0017 -0.05285,0.08562 -0.117353,0.186452 -0.06209,0.09702 -0.09666,0.157435 -0.109159,0.19836 0,6e-6 0,2.3e-5 0,2.9e-5 -0.0015,0.0051 -0.0033,0.01008 -0.0033,0.01438 0,7e-6 0,1.6e-5 0,2.6e-5 -0.0033,0.01356 -0.0017,0.02477 0.0011,0.03437 0.0017,0.0061 0.0051,0.01232 0.01027,0.01745 0.0051,0.0053 0.01027,0.01008 0.01725,0.01498 v -3.1e-5 c 0.0051,0.0035 0.0084,0.0068 0.01355,0.009 0,5e-6 1.4e-5,-2e-6 1.4e-5,0 0.0084,0.0053 0.0154,0.0086 0.02448,0.01043 0.02259,0.0046 0.05715,-0.0023 0.150187,-0.01991 0.0354,-0.0068 0.07409,-0.01581 0.1130827,-0.02686 0.117538,-0.03259 0.239829,-0.07962 0.292555,-0.115053 0.02702,-0.01827 0.07169,-0.06657 0.09904,-0.107578 0.01725,-0.02454 0.02823,-0.04101 0.03864,-0.05178 0.007,-0.0072 0.01356,-0.01192 0.01951,-0.01457 0.01028,-0.0038 0.01991,-0.0038 0.03372,-0.0021 0.02183,0.0033 0.03764,0.003 0.04892,-0.0037 0.0033,-0.0021 0.007,-0.0043 0.0084,-0.0078 0.0017,-0.0025 0.0033,-0.0051 0.0051,-0.0084 0,-10e-6 1.6e-5,-2e-5 1.6e-5,-3e-5 0.007,-0.01581 0.01028,-0.04197 0.0084,-0.08292 0,-9e-6 0,-2.3e-5 0,-2.9e-5 -7.02e-4,-0.03274 -0.0033,-0.07503 -0.0084,-0.129222 -0.0033,-0.04579 -0.007,-0.08084 -0.0084,-0.108179 0,-1.1e-5 0,-1.8e-5 0,-2.8e-5 -0.0017,-0.02733 -0.0017,-0.04696 -0.0013,-0.062 0,-1.2e-5 0,-1.8e-5 0,-2.8e-5 4.46e-4,-0.0076 0.0013,-0.01396 0.0017,-0.01951 0,-1e-5 0,-1.8e-5 0,-2.9e-5 0.0033,-0.01684 0.01028,-0.02659 0.02054,-0.0399 0.0154,-0.02054 0.02926,-0.05811 0.02926,-0.08364 0,-0.0316 -0.0154,-0.134499 -0.03729,-0.253327 -0.01028,-0.05941 -0.02292,-0.122796 -0.03526,-0.183269 -0.01211,-0.06045 -0.02499,-0.117968 -0.03643,-0.165649 -0.01357,-0.05621 -0.03781,-0.140116 -0.06861,-0.23938 -0.01541,-0.04965 -0.0325,-0.103122 -0.05064,-0.158915 -0.0051,-0.01396 -0.01027,-0.02889 -0.01355,-0.04306 -0.03267,-0.09951 -0.06809,-0.204009 -0.104005,-0.307105 -0.02053,-0.05887 -0.04123,-0.117003 -0.06142,-0.172836 -1.8e-5,-1.2e-5 -3.7e-5,-1.6e-5 -3.7e-5,-2.9e-5 -0.04049,-0.1115671 -0.07914,-0.214087 -0.111995,-0.295149 -0.06433,-0.15879 -0.107435,-0.266507 -0.140803,-0.357184 -0.03335,-0.09068 -0.05696,-0.164316 -0.08228,-0.254933 -0.01704,-0.06041 -0.03456,-0.12838 -0.05645,-0.213955 -0.04464,-0.174428 -0.09411,-0.36676 -0.110186,-0.427237 -0.0154,-0.06048 -0.04226,-0.23974 -0.05834,-0.398361 -0.0154,-0.1586229 -0.04175,-0.3370302 -0.05696,-0.3964709 -0.0414,-0.1620192 -0.128811,-0.3881317 -0.221829,-0.5809908 -0.0154,-0.032136 -0.03113,-0.063338 -0.04669,-0.093176 0,-7.6e-6 0,-2.1e-5 0,-2.88e-5 -0.0154,-0.029845 -0.03132,-0.058311 -0.04653,-0.084958 L 8.1561116,6.888869 8.1300946,6.6249746 c -0.01355,-0.1451442 -0.02462,-0.2864435 -0.0231,-0.3140041 3.94e-4,-0.00665 0.0033,-0.019344 0.0084,-0.036539 0.0051,-0.017166 0.01212,-0.038846 0.02033,-0.063368 0,-7.8e-6 0,-2.06e-5 0,-2.84e-5 0.01704,-0.049065 0.03865,-0.1096467 0.06142,-0.1690008 0.0455,-0.1187269 0.09341,-0.2325683 0.104704,-0.2396119 0.007,-0.00453 0.01766,-0.00314 0.03661,0.00837 0.01889,0.011499 0.04637,0.033091 0.08811,0.068926 0.02772,0.023886 0.06193,0.054108 0.104005,0.091886 0.04499,0.040458 0.0929,0.08632 0.140804,0.1345239 0.04791,0.0482 0.09598,0.098745 0.141131,0.1485528 0,5.8e-6 0,2.4e-5 0,2.9e-5 0.02259,0.024903 0.0445,0.049607 0.06536,0.073761 0,4.8e-6 0,2.33e-5 0,2.83e-5 0.04175,0.048314 0.07939,0.094348 0.1100018,0.1350679 0,5.8e-6 0,2.35e-5 0,2.88e-5 0.0154,0.020349 0.02891,0.039388 0.04056,0.056696 0.01355,0.02131 0.02772,0.043327 0.04037,0.066116 1.8e-5,7.4e-6 0,2.18e-5 0,2.91e-5 0.06382,0.1139423 0.109816,0.2466569 0.138893,0.4009953 0.0051,0.030869 0.01027,0.062586 0.0154,0.095208 0.0051,0.032633 0.0084,0.066132 0.01212,0.1005644 0.0017,0.0216 0.0033,0.039681 0.007,0.054693 0.007,0.045039 0.01355,0.06239 0.02651,0.063998 0.01212,0.00158 0.04669,0.00691 0.07698,0.011828 l 0.0551,0.00899 -0.02359,0.04696 c -0.007,0.012916 -0.01869,0.032103 -0.03286,0.052602 -0.01356,0.020513 -0.03062,0.04232 -0.04567,0.060502 -0.007,0.00908 -0.0154,0.019507 -0.02378,0.030553 -0.01725,0.022089 -0.03302,0.046697 -0.04604,0.068207 -0.007,0.010757 -0.01212,0.020731 -0.01725,0.029237 -0.0051,0.00865 -0.0084,0.019487 -0.01355,0.032015 -0.01951,0.050081 -0.0414,0.1268111 -0.05663,0.1945414 -0.0033,0.016941 -0.007,0.033312 -0.01027,0.048566 -0.0051,0.030502 -0.0084,0.056524 -0.0084,0.073617 -1.8e-5,0.00801 5.67e-4,0.01577 0.0016,0.023135 0.0033,0.022155 0.01212,0.041166 0.02327,0.055693 0.0084,0.00969 0.01745,0.017372 0.02823,0.022623 0,4e-6 1.5e-5,-3.3e-6 1.5e-5,0 0.0014,6.816e-4 0.0033,9.753e-4 0.0051,0.00158 0.01027,0.00402 0.02033,0.00652 0.03148,0.00652 0.01745,0 0.03045,-0.00324 0.0438,-0.012957 0.0033,-0.00242 0.007,-0.00528 0.01027,-0.00855 0.0033,-0.00328 0.007,-0.00703 0.01027,-0.011278 0,-4.5e-6 0,-2.38e-5 0,-2.83e-5 0.007,-0.00848 0.0154,-0.018974 0.02448,-0.031898 0.01355,-0.019528 0.0255,-0.033972 0.03764,-0.045129 0.0033,-0.00372 0.0084,-0.00708 0.01211,-0.010149 0.01725,-0.012217 0.0361,-0.01963 0.0633,-0.026487 0.01211,-0.00309 0.02429,-0.00655 0.0361,-0.010406 0.02378,-0.00774 0.04669,-0.017064 0.06894,-0.027833 0.01028,-0.00538 0.02205,-0.011131 0.03267,-0.017228 0.04259,-0.024389 0.08176,-0.054336 0.116163,-0.088823 0.01745,-0.017227 0.03335,-0.035596 0.04808,-0.054978 0,-6.2e-6 0,-2.28e-5 0,-2.88e-5 0.02226,-0.029075 0.04157,-0.060409 0.05763,-0.093605 0,-7.8e-6 0,-2.04e-5 0,-2.88e-5 0.01028,-0.022134 0.02012,-0.045081 0.02753,-0.068721 0.0033,-0.011849 0.0071,-0.023821 0.01028,-0.035992 0.0071,-0.028588 0.01028,-0.048215 0.0071,-0.074967 -0.0033,-0.026752 -0.01356,-0.060628 -0.0337,-0.1177453 l -0.04365,-0.128451 0.0585,-0.029837 c 0.0154,-0.00822 0.03148,-0.017844 0.04344,-0.026743 0.01211,-0.00891 0.02033,-0.017085 0.02242,-0.022392 0.001,-0.00265 9.06e-4,-0.00823 -1.72e-4,-0.016038 0,-7.1e-6 0,-2.12e-5 0,-2.81e-5 -0.0033,-0.023428 -0.01541,-0.066886 -0.03061,-0.1115602 -0.02093,-0.059565 -0.06467,-0.2039561 -0.09701,-0.3208766 -0.0662,-0.2389688 -0.151584,-0.4323076 -0.260563,-0.5898673 -0.007,-0.00997 -0.01541,-0.021356 -0.02532,-0.034017 -0.01028,-0.01265 -0.02138,-0.02654 -0.03405,-0.04152 -0.0254,-0.029954 -0.05588,-0.064225 -0.08988,-0.1014432 -0.03403,-0.037198 -0.07184,-0.077331 -0.111877,-0.119019 C 9.0161484,5.5819911 8.7583646,5.3349106 8.6159466,5.2225932 8.4771966,5.1131888 8.3543736,5.0210846 8.2498296,4.9478753 8.1801986,4.8990695 8.1186166,4.858652 8.0658226,4.827095 c 0,-4.7e-6 -1.6e-5,5e-6 -1.6e-5,0 -0.02634,-0.01577 -0.05045,-0.029341 -0.07236,-0.040631 -0.01027,-0.00564 -0.02138,-0.010722 -0.03113,-0.015215 -0.01951,-0.00899 -0.03678,-0.015729 -0.0515,-0.020061 -1.9e-5,-2.8e-6 -3.3e-5,3.1e-6 -3.3e-5,0 -0.007,-0.00217 -0.01355,-0.00374 -0.02033,-0.00473 -0.007,-0.0012 -0.0154,-0.00314 -0.02481,-0.00557 -0.01786,-0.0049 -0.03694,-0.01191 -0.05337,-0.019446 -0.0084,-0.00376 -0.0154,-0.00764 -0.02205,-0.011458 -0.01027,-0.00612 -0.01827,-0.010274 -0.02448,-0.016058 -0.0017,-0.00194 -0.0033,-0.00402 -0.0051,-0.00645 -1.9e-5,-9.9e-6 -3.5e-5,-1.88e-5 -3.5e-5,-2.86e-5 -8.05e-4,-0.00122 -0.0014,-0.00278 -0.0017,-0.00418 -7.02e-4,-0.00139 -0.0015,-0.00261 -0.0017,-0.00421 -2.24e-4,-6.458e-4 -3.43e-4,-0.00155 -5.83e-4,-0.00225 -0.0017,-0.00608 -0.0033,-0.013491 -0.0033,-0.023479 -6.84e-4,-0.016653 7.86e-4,-0.039796 0.0051,-0.073076 0,-7.8e-6 0,-2.1e-5 0,-2.88e-5 0.0017,-0.022178 0.007,-0.048857 0.01027,-0.081123 0.0084,-0.064528 0.02275,-0.1513743 0.04072,-0.2691344 0.02033,-0.1316943 0.03097,-0.208321 0.03489,-0.2595418 9.75e-4,-0.012814 0.0015,-0.024013 0.0016,-0.034103 3.24e-4,-0.030268 -0.0033,-0.050395 -0.0084,-0.072874 -0.01212,-0.043707 -0.02532,-0.080231 -0.04158,-0.1106998 -0.0051,-0.010149 -0.01027,-0.019611 -0.01725,-0.028465 -0.02411,-0.035391 -0.05337,-0.060656 -0.08965,-0.078402 -0.01992,-0.00969 -0.04756,-0.018789 -0.08041,-0.026887 -0.01725,-0.00405 -0.03405,-0.00786 -0.05253,-0.011334 -1.7e-5,-1.4e-6 -1.7e-5,1.7e-6 -3.3e-5,0 -0.05542,-0.01045 -0.11838,-0.018152 -0.178689,-0.021555 0,-5e-7 -1.5e-5,7e-7 -3.3e-5,0 -0.04019,-0.00228 -0.07902,-0.00263 -0.11376,-6.873e-4 -0.09631,0.00544 -0.102651,0.00822 -0.178134,0.078143 -0.01889,0.017413 -0.0354,0.033232 -0.05012,0.048136 -0.02203,0.022351 -0.03967,0.042614 -0.05355,0.063052 -0.05115,0.074934 -0.05253,0.1520869 -0.03901,0.3421807 0.0017,0.030229 0.0051,0.055919 0.007,0.077913 3.26e-4,0.00321 8.05e-4,0.00507 0.0012,0.00812 0.0033,0.028342 0.007,0.051386 0.01212,0.06861 0.0033,0.012732 0.007,0.022947 0.01211,0.031527 0.0017,0.0043 0.0051,0.00818 0.007,0.011725 0.0033,0.00506 0.007,0.010473 0.01027,0.016058 0.0033,0.00561 0.007,0.011396 0.01027,0.017207 0.0084,0.017434 0.0154,0.035048 0.01848,0.048306 9.92e-4,0.0044 0.0015,0.00835 0.0016,0.011622 0,7.8e-6 0,2.06e-5 0,2.84e-5 1.7e-4,0.00652 -0.0015,0.010519 -0.0051,0.010519 -0.0016,0 -0.0033,-6.63e-5 -0.0051,-0.00114 -0.0017,-0.00108 -0.0033,-0.00319 -0.007,-0.00719 -0.007,-0.00801 -0.01725,-0.023803 -0.03559,-0.054777 -0.03767,-0.061929 -0.108818,-0.1846639 -0.249691,-0.4278623 -0.07957,-0.1372938 -0.135136,-0.2345195 -0.175712,-0.3097664 -0.01355,-0.025093 -0.02532,-0.047737 -0.03591,-0.068609 -0.01027,-0.020865 -0.01992,-0.039942 -0.02805,-0.057928 -0.01725,-0.035975 -0.02908,-0.067532 -0.04055,-0.1000201 -0.0051,-0.016263 -0.01027,-0.032729 -0.01725,-0.050112 -0.06415,-0.2050487 -0.07099,-0.2551496 -0.07526,-0.5499226 -0.0016,-0.1125723 -0.0017,-0.1798861 -0.0033,-0.2200559 -6e-4,-0.013389 -0.0013,-0.023759 -0.0017,-0.031785 0,-1.25e-5 0,-1.62e-5 0,-2.87e-5 -0.0014,-0.012032 -0.0033,-0.018768 -0.0051,-0.022535 0,-6.4e-6 0,-2.23e-5 0,-2.84e-5 -0.0051,-0.00626 -0.01027,-0.00412 -0.02033,-0.00412 -0.0084,4e-7 -0.0154,-0.00387 -0.01828,-0.028693 -0.0033,-0.02483 -0.0051,-0.070649 -0.0051,-0.1545118 5.1e-5,-0.055908 7.2e-4,-0.1287354 0.0017,-0.2235487 0.0017,-0.167814 0.0013,-0.3208346 -9.24e-4,-0.3942951 -7.37e-4,-0.024491 -0.0016,-0.040138 -0.0033,-0.044554 -0.0012,-0.00496 -0.0033,-0.00934 -0.0051,-0.013511 -4.42e-4,-8.543e-4 -8.55e-4,-0.0017 -0.0013,-0.00252 -0.0011,-0.00188 -0.0017,-0.00339 -0.0033,-0.00509 -0.0017,-0.00316 -0.0051,-0.00606 -0.0084,-0.00855 -0.0015,-0.00133 -0.0033,-0.00256 -0.0051,-0.00365 -0.0033,-0.00213 -0.007,-0.00386 -0.01027,-0.0053 -0.0016,-6.799e-4 -0.0033,-0.00149 -0.0051,-0.002 -0.0051,-0.00164 -0.01027,-0.00273 -0.0154,-0.00282 z"
       style="stroke:#ffffff;stroke-width:0.355;stroke-dasharray:none" /><path
       id="path402-3"
       d="m 6.2361459,1.6263418 c -0.0051,-5.86e-5 -0.0084,5.592e-4 -0.01355,0.00152 -0.0013,2.733e-4 -0.0017,6.723e-4 -0.0033,0.00103 -0.0033,9.561e-4 -0.007,0.0022 -0.01027,0.00377 -0.0012,5.879e-4 -0.0017,0.00113 -0.0033,0.00179 -0.0033,0.0024 -0.0084,0.00519 -0.01212,0.00875 -0.0033,0.00372 -0.0084,0.00871 -0.01211,0.014785 -0.0033,0.00608 -0.007,0.013245 -0.01027,0.021354 0,8.4e-6 0,2e-5 0,2.86e-5 -0.0033,0.00812 -0.007,0.017166 -0.01027,0.027031 0,9.3e-6 0,1.93e-5 0,2.85e-5 -0.0033,0.00986 -0.007,0.020513 -0.0084,0.031785 0,9.7e-6 1.6e-5,1.9e-5 0,2.88e-5 -4.27e-4,0.00187 -7.52e-4,0.004 -0.0012,0.00589 -0.0051,0.021108 -0.0084,0.044011 -0.01212,0.068293 -0.0033,0.026472 -0.0051,0.054285 -0.0051,0.082181 0,0.036114 -7.19e-4,0.056155 -0.0051,0.065888 -0.0017,0.00485 -0.0033,0.00714 -0.0084,0.00759 -0.0017,2.162e-4 -0.0033,-3.21e-5 -0.007,-6.581e-4 -0.0017,-6.221e-4 -0.0051,-0.00161 -0.007,-0.00289 -0.0224,-0.010066 -0.0438,-0.014168 -0.06466,-0.01193 -0.0051,5.561e-4 -0.01027,0.00151 -0.0154,0.00286 -0.01027,0.00269 -0.02053,0.00698 -0.03062,0.012957 -0.007,0.00431 -0.0154,0.00982 -0.02226,0.015894 -0.0033,0.00228 -0.0051,0.00439 -0.0084,0.00693 -0.0051,0.00463 -0.01027,0.00967 -0.0154,0.015134 0,1.05e-5 -1.9e-5,1.85e-5 -1.9e-5,2.88e-5 -0.02033,0.021933 -0.04088,0.050677 -0.0621,0.08659 0,7.6e-6 0,2.12e-5 0,2.86e-5 -0.01027,0.017968 -0.02138,0.03772 -0.03234,0.059301 -0.06331,0.1247372 -0.07442,0.2252077 -0.03353,0.3035527 0.0154,0.029356 0.02292,0.04423 0.02327,0.05177 7e-5,0.00188 -3.24e-4,0.00334 -0.0012,0.0044 -0.0033,0.00322 -0.0084,0.00337 -0.02012,0.00337 -0.007,0 -0.01191,8.453e-4 -0.01704,0.0037 -0.0068,0.00476 -0.01027,0.015032 -0.01191,0.036165 -0.001,0.033804 0.0068,0.09536 0.02072,0.2063101 0.007,0.047909 0.01355,0.098102 0.02138,0.1498444 1.9e-5,9.9e-6 0,1.89e-5 0,2.88e-5 0.0084,0.051732 0.01725,0.1049871 0.0255,0.1590069 1.7e-5,9.1e-6 0,1.9e-5 0,2.84e-5 0.0084,0.054022 0.01889,0.108799 0.02875,0.1635593 0,9.2e-6 0,1.96e-5 0,2.87e-5 0.02033,0.1095313 0.04173,0.2190026 0.06382,0.3222225 0,8.8e-6 0,1.94e-5 0,2.85e-5 0.01027,0.051605 0.02205,0.1016489 0.03318,0.1493557 0,8.9e-6 0,2.01e-5 0,2.87e-5 0.02205,0.09542 0.0438,0.1815144 0.06415,0.2520682 0.05645,0.1965106 0.116676,0.346407 0.20103,0.4942861 1.7e-5,7.3e-6 0,2.14e-5 0,2.87e-5 0.02805,0.049295 0.05885,0.098351 0.09322,0.1488404 l 0.121809,0.1795676 -0.05799,0.048476 c -0.01027,0.00818 -0.02072,0.018398 -0.03234,0.030295 -0.02327,0.023775 -0.04961,0.054168 -0.07665,0.087993 0,6.1e-6 1.9e-5,2.28e-5 0,2.86e-5 -0.04055,0.050738 -0.08263,0.1091685 -0.118215,0.1644176 -0.02378,0.036837 -0.0445,0.072256 -0.06006,0.1030554 -0.02602,0.051638 -0.0484,0.1030711 -0.06774,0.1573456 -0.03883,0.1085507 -0.06602,0.2284602 -0.0869,0.384044 -0.01027,0.077794 -0.0193,0.164508 -0.02737,0.2631781 -0.02908,0.3586973 -0.04362,0.462261 -0.09546,0.6823282 -0.0084,0.034962 -0.01745,0.076888 -0.02653,0.1206654 -0.01827,0.08756 -0.03626,0.1825081 -0.046181,0.2438506 -0.00513,0.030666 -0.00862,0.052935 -0.00862,0.061679 0,0.00115 5.832e-4,0.00233 0.00169,0.00349 0.00349,0.00351 0.01191,0.00713 0.022917,0.010326 0,2.7e-6 1.8e-5,-3.3e-6 1.8e-5,0 0.0154,0.00431 0.03661,0.00801 0.06074,0.010201 0.05731,0.00521 0.108113,0.01996 0.170208,0.051886 1.7e-5,4.2e-6 3.3e-5,-4e-6 3.3e-5,0 0.03713,0.019179 0.07836,0.044523 0.127272,0.077685 0.05577,0.037836 0.158401,0.1016666 0.257942,0.1616414 0,4.3e-6 1.9e-5,-4.4e-6 3.5e-5,0 0.09955,0.05997 0.196287,0.1160944 0.24053,0.1385055 l 0.07185,0.036453 -0.02294,0.044354 c -0.0241,0.046618 -0.0573,0.1041873 -0.09681,0.1685805 -0.0792,0.1287908 -0.183576,0.2848618 -0.291151,0.434927 -0.05372,0.075033 -0.108297,0.1485631 -0.160824,0.2164462 -0.151234,0.1952806 -0.274078,0.3718737 -0.314947,0.4524809 -0.01951,0.038378 -0.0337,0.072424 -0.04515,0.1126709 -0.018892,0.067085 -0.029938,0.1514195 -0.043102,0.3017196 -0.01191,0.141851 -0.029589,0.287415 -0.051828,0.438966 0,8e-6 0,1.8e-5 0,2.8e-5 -0.066879,0.4546478 -0.180105,0.9630808 -0.3517097,1.5859708 l -0.027208,0.09896 h 0.044826 c 0.0154,0 0.026345,1.67e-4 0.031828,0.0021 0.00171,6.33e-4 0.00349,0.0015 0.00349,0.0025 7.515e-4,10e-4 0.00101,0.0025 8.028e-4,0.0041 -1.026e-4,0.001 -7.699e-4,0.0025 -0.00128,0.0038 -2.732e-4,6.88e-4 -2.732e-4,0.0011 -6.654e-4,0.002 0,9e-6 1.64e-5,1.8e-5 0,2.8e-5 -0.00171,0.0046 -0.00677,0.01066 -0.01191,0.01849 -0.00349,0.0063 -0.00862,0.01272 -0.0154,0.0191 -0.029426,0.03195 -0.081603,0.06522 -0.162857,0.103631 -0.032506,0.01541 -0.069632,0.03156 -0.1118911,0.04883 -0.1745616,0.07135 -0.2354496,0.09938 -0.2650804,0.133124 0,7e-6 -1.66e-5,1.9e-5 -1.66e-5,2.9e-5 -0.010274,0.01133 -0.017043,0.02312 -0.022239,0.03744 -0.00862,0.02087 -0.013758,0.03768 -0.013758,0.05146 -4.456e-4,0.01028 0.00171,0.0189 0.00678,0.02631 0.00349,0.0049 0.00862,0.0092 0.0154,0.01314 0.00349,0.002 0.00678,0.0038 0.010274,0.0055 0,4e-6 1.85e-5,-4e-6 3.49e-5,0 0.00349,0.0011 0.00677,0.0021 0.010274,0.003 0.0154,0.0055 0.033882,0.01028 0.058851,0.01438 0.0154,0.0025 0.031828,0.0049 0.050802,0.0074 0.022239,0.0028 0.0438,0.0053 0.065011,0.0076 0.04226,0.0043 0.08263,0.0072 0.1211109,0.0086 0.038481,0.0015 0.075094,0.0015 0.1100016,-2.9e-5 0.034908,-0.0015 0.068091,-0.0046 0.09957,-0.0088 0.094766,-0.01335 0.1750749,-0.03994 0.2446181,-0.08071 0.023266,-0.01356 0.045155,-0.02872 0.066039,-0.04549 0.010274,-0.0084 0.020719,-0.01726 0.030617,-0.02633 0.040883,-0.03774 0.057311,-0.05002 0.067742,-0.04522 0.00171,7.97e-4 0.00349,0.0021 0.00513,0.0038 0.00149,0.0017 0.00349,0.0038 0.00513,0.0063 0.00349,0.0055 0.00678,0.01066 0.01191,0.01541 0.010274,0.0095 0.023102,0.01766 0.040206,0.02446 0.0086,0.0033 0.01807,0.0063 0.0284,0.009 0,2e-6 1.6e-5,-2e-6 1.6e-5,0 0.01027,0.0027 0.02183,0.0049 0.03405,0.0071 0,0 1.7e-5,-2e-6 1.7e-5,0 0.02462,0.0041 0.05304,0.0065 0.0852,0.008 0.0154,6.63e-4 0.03335,10e-4 0.05134,10e-4 0.06485,0 0.105546,-1.67e-4 0.129509,-0.01008 0.0084,-0.0033 0.01355,-0.0076 0.01869,-0.01335 0.0017,-0.0028 0.0033,-0.0061 0.0051,-0.0099 0.0015,-0.0037 0.0033,-0.0076 0.0033,-0.01211 0,-8e-6 0,-2e-5 0,-2.8e-5 0.0017,-0.009 0.0017,-0.01971 0.0017,-0.03253 -0.0011,-0.02571 -0.007,-0.05992 -0.01355,-0.105402 -0.0191,-0.126492 -0.02411,-0.155425 -0.01027,-0.165773 0.0051,-0.0035 0.01027,-0.0048 0.01951,-0.0072 0.0084,-0.0023 0.01355,-0.0055 0.01889,-0.01088 0.0015,-0.0018 0.0033,-0.0037 0.0033,-0.0061 0.0051,-0.009 0.007,-0.02224 0.007,-0.04146 0,-0.08803 0.05542,-0.374434 0.132569,-0.685421 0.05764,-0.232107 0.09871,-0.406715 0.127456,-0.549494 0.04807,-0.2379648 0.0621,-0.3874898 0.06228,-0.5673318 l 2.75e-4,-0.18633 0.04774,-0.03651 c 0.02616,-0.02012 0.11684,-0.08783 0.201585,-0.1505367 0.02653,-0.019507 0.05491,-0.042075 0.08468,-0.066839 C 6.935593,9.1228725 7.037443,9.0281068 7.136268,8.928448 7.267995,8.795571 7.394384,8.6540162 7.47857,8.5407965 7.51604,8.4904075 7.55093,8.4449205 7.57711,8.4122256 c 1.6e-5,-7e-6 0,-2.09e-5 0,-2.81e-5 0.01027,-0.013491 0.01889,-0.023177 0.02618,-0.031756 0.0015,-0.00183 0.0033,-0.00511 0.0051,-0.0067 0.0084,-0.00898 0.01212,-0.013717 0.01355,-0.013306 0.0011,3.878e-4 0.0033,0.0049 0.007,0.012751 1.8e-5,1.32e-5 0,1.54e-5 0,2.86e-5 0.0033,0.00786 0.0084,0.019015 0.01355,0.03267 1.8e-5,10e-6 0,1.89e-5 0,2.9e-5 0.01212,0.027335 0.02635,0.064643 0.04175,0.1053157 0.01027,0.027009 0.02033,0.052622 0.02996,0.077055 0.01951,0.048873 0.0385,0.09304 0.05782,0.1342119 0.04807,0.102938 0.09801,0.1872925 0.163555,0.2801012 0.02789,0.039549 0.0537,0.076941 0.07784,0.1127129 0.09616,0.1430825 0.16337,0.2602264 0.218712,0.3851604 0.04158,0.0937 0.07647,0.19179 0.111871,0.308478 0.01725,0.05645 0.04088,0.129181 0.06536,0.2009278 0,8e-6 0,2e-5 0,2.8e-5 0.02448,0.07173 0.04961,0.142487 0.06945,0.194891 0.05885,0.154992 0.105895,0.285601 0.143185,0.40383 0.02789,0.08866 0.05045,0.170372 0.06842,0.25015 0.01212,0.05319 0.02205,0.105526 0.03045,0.158484 0.0033,0.02649 0.0084,0.05312 0.01212,0.08012 0,1e-5 0,2.1e-5 0,2.8e-5 0.007,0.05399 0.01211,0.109369 0.0154,0.167621 0.0033,0.05826 0.007,0.119387 0.0084,0.184911 0.0016,0.06553 0.0017,0.135446 0.0017,0.211236 l -2.24e-4,0.371501 0.05645,-0.0053 c 0.03097,-0.0028 0.05645,-0.0038 0.05645,-0.0023 0,0.0017 -0.05285,0.08562 -0.117353,0.186452 -0.06209,0.09702 -0.09666,0.157435 -0.109159,0.19836 0,6e-6 0,2.3e-5 0,2.9e-5 -0.0015,0.0051 -0.0033,0.01008 -0.0033,0.01438 0,7e-6 0,1.6e-5 0,2.6e-5 -0.0033,0.01356 -0.0017,0.02477 0.0011,0.03437 0.0017,0.0061 0.0051,0.01232 0.01027,0.01745 0.0051,0.0053 0.01027,0.01008 0.01725,0.01498 v -3.1e-5 c 0.0051,0.0035 0.0084,0.0068 0.01355,0.009 0,4e-6 1.4e-5,-2e-6 1.4e-5,0 0.0084,0.0053 0.0154,0.0086 0.02448,0.01043 0.02259,0.0046 0.05715,-0.0023 0.150187,-0.01991 0.0354,-0.0068 0.07409,-0.01581 0.113083,-0.02686 0.117538,-0.03259 0.239829,-0.07962 0.292555,-0.115053 0.02702,-0.01827 0.07169,-0.06657 0.09904,-0.107578 0.01725,-0.02454 0.02823,-0.04101 0.03864,-0.05178 0.007,-0.0072 0.01356,-0.01192 0.01951,-0.01457 0.01028,-0.0038 0.01991,-0.0038 0.03372,-0.0021 0.02183,0.0033 0.03764,0.003 0.04892,-0.0037 0.0033,-0.0021 0.007,-0.0043 0.0084,-0.0078 0.0017,-0.0025 0.0033,-0.0051 0.0051,-0.0084 0,-1e-5 1.6e-5,-2e-5 1.6e-5,-3e-5 0.007,-0.01581 0.01028,-0.04197 0.0084,-0.08292 0,-9e-6 0,-2.3e-5 0,-2.9e-5 -7.02e-4,-0.03274 -0.0033,-0.07503 -0.0084,-0.129222 -0.0033,-0.04579 -0.007,-0.08084 -0.0084,-0.108179 0,-1.1e-5 0,-1.8e-5 0,-2.8e-5 -0.0017,-0.02733 -0.0017,-0.04696 -0.0013,-0.062 0,-1.2e-5 0,-1.8e-5 0,-2.8e-5 4.46e-4,-0.0076 0.0013,-0.01396 0.0017,-0.01951 0,-10e-6 0,-1.8e-5 0,-2.9e-5 0.0033,-0.01684 0.01028,-0.02659 0.02054,-0.0399 0.0154,-0.02054 0.02926,-0.05811 0.02926,-0.08364 0,-0.0316 -0.0154,-0.134499 -0.03729,-0.253327 -0.01028,-0.05941 -0.02292,-0.122796 -0.03526,-0.183269 -0.01211,-0.06045 -0.02499,-0.117968 -0.03643,-0.165649 -0.01357,-0.05621 -0.03781,-0.140116 -0.06861,-0.23938 -0.01541,-0.04965 -0.0325,-0.103122 -0.05064,-0.158915 -0.0051,-0.01396 -0.01027,-0.02889 -0.01355,-0.04306 -0.03267,-0.09951 -0.06809,-0.204008 -0.104005,-0.307104 -0.02053,-0.05887 -0.04123,-0.117004 -0.06142,-0.172837 -1.8e-5,-1.2e-5 -3.7e-5,-1.6e-5 -3.7e-5,-2.9e-5 C 9.11125,9.9921202 9.0726,9.8895992 9.039745,9.8085382 8.975415,9.6497472 8.93231,9.5420302 8.898942,9.4513532 8.865592,9.3606732 8.841982,9.2870382 8.816662,9.1964206 8.799622,9.1360086 8.782102,9.0680405 8.760212,8.9824661 8.715572,8.8080381 8.666102,8.6157055 8.650026,8.5552289 8.634626,8.4947539 8.607766,8.3154885 8.591686,8.1568677 8.576286,7.9982448 8.549936,7.8198375 8.534726,7.7603968 8.493326,7.5983776 8.405915,7.3722651 8.312897,7.179406 8.297497,7.14727 8.281767,7.116068 8.266207,7.08623 c 0,-7.6e-6 0,-2.1e-5 0,-2.88e-5 -0.0154,-0.029845 -0.03132,-0.058311 -0.04653,-0.084958 L 8.1561169,6.8912306 8.1300999,6.6273362 c -0.01355,-0.1451442 -0.02462,-0.2864435 -0.0231,-0.3140041 3.94e-4,-0.00665 0.0033,-0.019344 0.0084,-0.036539 0.0051,-0.017166 0.01212,-0.038846 0.02033,-0.063368 0,-7.8e-6 0,-2.06e-5 0,-2.84e-5 0.01704,-0.049065 0.03865,-0.1096467 0.06142,-0.1690008 0.0455,-0.1187269 0.09341,-0.2325683 0.104704,-0.2396119 0.007,-0.00453 0.01766,-0.00314 0.03661,0.00837 0.01889,0.011499 0.04637,0.033091 0.08811,0.068926 0.02772,0.023886 0.06193,0.054108 0.104005,0.091886 0.04499,0.040458 0.0929,0.08632 0.140804,0.1345239 0.04791,0.0482 0.09598,0.098745 0.141131,0.1485528 0,5.8e-6 0,2.4e-5 0,2.9e-5 0.02259,0.024903 0.0445,0.049607 0.06536,0.073761 0,4.8e-6 0,2.33e-5 0,2.83e-5 0.04175,0.048314 0.07939,0.094348 0.110002,0.1350679 0,5.8e-6 0,2.35e-5 0,2.88e-5 0.0154,0.020349 0.02891,0.039388 0.04056,0.056696 0.01355,0.02131 0.02772,0.043327 0.04037,0.066116 1.8e-5,7.4e-6 0,2.18e-5 0,2.91e-5 0.06382,0.1139423 0.109816,0.2466569 0.138893,0.4009953 0.0051,0.030869 0.01027,0.062586 0.0154,0.095208 0.0051,0.032633 0.0084,0.066132 0.01212,0.1005644 0.0017,0.0216 0.0033,0.039681 0.007,0.054693 0.007,0.045039 0.01355,0.06239 0.02651,0.063998 0.01212,0.00158 0.04669,0.00691 0.07698,0.011828 l 0.0551,0.00899 -0.02359,0.04696 c -0.007,0.012916 -0.01869,0.032103 -0.03286,0.052602 -0.01356,0.020513 -0.03062,0.04232 -0.04567,0.060502 -0.007,0.00908 -0.0154,0.019507 -0.02378,0.030553 -0.01725,0.022089 -0.03302,0.046697 -0.04604,0.068207 -0.007,0.010757 -0.01212,0.020731 -0.01725,0.029237 -0.0051,0.00865 -0.0084,0.019487 -0.01355,0.032015 -0.01951,0.050081 -0.0414,0.1268111 -0.05663,0.1945414 -0.0033,0.016941 -0.007,0.033312 -0.01027,0.048566 -0.0051,0.030502 -0.0084,0.056524 -0.0084,0.073617 -1.8e-5,0.00801 5.67e-4,0.01577 0.0016,0.023135 0.0033,0.022155 0.01212,0.041166 0.02327,0.055693 0.0084,0.00969 0.01745,0.017372 0.02823,0.022623 0,4e-6 1.5e-5,-3.3e-6 1.5e-5,0 0.0014,6.816e-4 0.0033,9.753e-4 0.0051,0.00158 0.01027,0.00402 0.02033,0.00652 0.03148,0.00652 0.01745,0 0.03045,-0.00324 0.0438,-0.012957 0.0033,-0.00242 0.007,-0.00528 0.01027,-0.00855 0.0033,-0.00328 0.007,-0.00703 0.01027,-0.011278 0,-4.5e-6 0,-2.38e-5 0,-2.83e-5 0.007,-0.00848 0.0154,-0.018974 0.02448,-0.031898 0.01355,-0.019528 0.0255,-0.033972 0.03764,-0.045129 0.0033,-0.00372 0.0084,-0.00708 0.01211,-0.010149 0.01725,-0.012217 0.0361,-0.01963 0.0633,-0.026487 0.01211,-0.00309 0.02429,-0.00655 0.0361,-0.010406 0.02378,-0.00774 0.04669,-0.017064 0.06894,-0.027833 0.01028,-0.00538 0.02205,-0.011131 0.03267,-0.017228 0.04259,-0.024389 0.08176,-0.054336 0.116163,-0.088823 0.01745,-0.017227 0.03335,-0.035596 0.04808,-0.054978 0,-6.2e-6 0,-2.28e-5 0,-2.88e-5 0.02226,-0.029075 0.04157,-0.060409 0.05763,-0.093605 0,-7.8e-6 0,-2.04e-5 0,-2.88e-5 0.01028,-0.022134 0.02012,-0.045081 0.02753,-0.068721 0.0033,-0.011849 0.0071,-0.023821 0.01028,-0.035992 0.0071,-0.028588 0.01028,-0.048215 0.0071,-0.074967 -0.0033,-0.026752 -0.01356,-0.060628 -0.0337,-0.1177453 l -0.04365,-0.128451 0.0585,-0.029837 c 0.0154,-0.00822 0.03148,-0.017844 0.04344,-0.026743 0.01211,-0.00891 0.02033,-0.017085 0.02242,-0.022392 10e-4,-0.00265 9.06e-4,-0.00823 -1.72e-4,-0.016038 0,-7.1e-6 0,-2.12e-5 0,-2.81e-5 -0.0033,-0.023428 -0.01541,-0.066886 -0.03061,-0.1115602 -0.02093,-0.059565 -0.06467,-0.2039561 -0.09701,-0.3208766 -0.0662,-0.2389688 -0.151584,-0.4323076 -0.260563,-0.5898673 -0.007,-0.00997 -0.01541,-0.021356 -0.02532,-0.034017 -0.01028,-0.01265 -0.02138,-0.02654 -0.03405,-0.04152 -0.0254,-0.029954 -0.05588,-0.064225 -0.08988,-0.1014432 -0.03403,-0.037198 -0.07184,-0.077331 -0.111877,-0.119019 C 9.0161539,5.5843527 8.7583699,5.3372722 8.6159519,5.2249548 8.4772019,5.1155504 8.3543789,5.0234462 8.2498349,4.9502369 8.1802039,4.9014311 8.1186219,4.8610136 8.0658279,4.8294566 c 0,-4.7e-6 -1.6e-5,5e-6 -1.6e-5,0 -0.02634,-0.01577 -0.05045,-0.029341 -0.07236,-0.040631 -0.01027,-0.00564 -0.02138,-0.010722 -0.03113,-0.015215 -0.01951,-0.00899 -0.03678,-0.015729 -0.0515,-0.020061 -1.9e-5,-2.8e-6 -3.3e-5,3.1e-6 -3.3e-5,0 -0.007,-0.00217 -0.01355,-0.00374 -0.02033,-0.00473 -0.007,-0.0012 -0.0154,-0.00314 -0.02481,-0.00557 -0.01786,-0.0049 -0.03694,-0.01191 -0.05337,-0.019446 -0.0084,-0.00376 -0.0154,-0.00764 -0.02205,-0.011458 -0.01027,-0.00612 -0.01827,-0.010274 -0.02448,-0.016058 -0.0017,-0.00194 -0.0033,-0.00402 -0.0051,-0.00645 -1.9e-5,-9.9e-6 -3.5e-5,-1.88e-5 -3.5e-5,-2.86e-5 -8.05e-4,-0.00122 -0.0014,-0.00278 -0.0017,-0.00418 -7.02e-4,-0.00139 -0.0015,-0.00261 -0.0017,-0.00421 -2.24e-4,-6.458e-4 -3.43e-4,-0.00155 -5.83e-4,-0.00225 -0.0017,-0.00608 -0.0033,-0.013491 -0.0033,-0.023479 -6.84e-4,-0.016653 7.86e-4,-0.039796 0.0051,-0.073076 0,-7.8e-6 0,-2.1e-5 0,-2.88e-5 0.0017,-0.022178 0.007,-0.048857 0.01027,-0.081123 0.0084,-0.064528 0.02275,-0.1513743 0.04072,-0.2691344 0.02033,-0.1316943 0.03097,-0.208321 0.03489,-0.2595418 9.75e-4,-0.012814 0.0015,-0.024013 0.0016,-0.034103 3.24e-4,-0.030268 -0.0033,-0.050395 -0.0084,-0.072874 -0.01212,-0.043707 -0.02532,-0.080231 -0.04158,-0.1106998 -0.0051,-0.010149 -0.01027,-0.019611 -0.01725,-0.028465 -0.02411,-0.035391 -0.05337,-0.060656 -0.08965,-0.078402 -0.01992,-0.00969 -0.04756,-0.018789 -0.08041,-0.026887 -0.01725,-0.00405 -0.03405,-0.00786 -0.05253,-0.011334 -1.7e-5,-1.4e-6 -1.7e-5,1.7e-6 -3.3e-5,0 -0.05542,-0.01045 -0.11838,-0.018152 -0.178689,-0.021555 0,-5e-7 -1.5e-5,7e-7 -3.3e-5,0 -0.04019,-0.00228 -0.07902,-0.00263 -0.11376,-6.873e-4 -0.09631,0.00544 -0.102651,0.00822 -0.178134,0.078143 -0.01889,0.017413 -0.0354,0.033232 -0.05012,0.048136 -0.02203,0.022351 -0.03967,0.042614 -0.05355,0.063052 -0.05115,0.074934 -0.05253,0.1520869 -0.03901,0.3421807 0.0017,0.030229 0.0051,0.055919 0.007,0.077913 3.26e-4,0.00321 8.05e-4,0.00507 0.0012,0.00812 0.0033,0.028342 0.007,0.051386 0.01212,0.06861 0.0033,0.012732 0.007,0.022947 0.01211,0.031527 0.0017,0.0043 0.0051,0.00818 0.007,0.011725 0.0033,0.00506 0.007,0.010473 0.01027,0.016058 0.0033,0.00561 0.007,0.011396 0.01027,0.017207 0.0084,0.017434 0.0154,0.035048 0.01848,0.048306 9.92e-4,0.0044 0.0015,0.00835 0.0016,0.011622 0,7.8e-6 0,2.06e-5 0,2.84e-5 1.7e-4,0.00652 -0.0015,0.010519 -0.0051,0.010519 -0.0016,0 -0.0033,-6.63e-5 -0.0051,-0.00114 -0.0017,-0.00108 -0.0033,-0.00319 -0.007,-0.00719 -0.007,-0.00801 -0.01725,-0.023803 -0.03559,-0.054777 C 6.9323519,4.29589 6.8612039,4.1731551 6.7203309,3.9299567 6.6407609,3.7926629 6.5851949,3.6954372 6.5446189,3.6201903 c -0.01355,-0.025093 -0.02532,-0.047737 -0.03591,-0.068609 -0.01027,-0.020865 -0.01992,-0.039942 -0.02805,-0.057928 -0.01725,-0.035975 -0.02908,-0.067532 -0.04055,-0.1000201 -0.0051,-0.016263 -0.01027,-0.032729 -0.01725,-0.050112 -0.06415,-0.2050487 -0.07099,-0.2551496 -0.07526,-0.5499226 -0.0016,-0.1125723 -0.0017,-0.1798861 -0.0033,-0.2200559 -6e-4,-0.013389 -0.0013,-0.023759 -0.0017,-0.031785 0,-1.25e-5 0,-1.62e-5 0,-2.87e-5 -0.0014,-0.012032 -0.0033,-0.018768 -0.0051,-0.022535 0,-6.4e-6 0,-2.23e-5 0,-2.84e-5 -0.0051,-0.00626 -0.01027,-0.00412 -0.02033,-0.00412 -0.0084,4e-7 -0.0154,-0.00387 -0.01828,-0.028693 -0.0033,-0.02483 -0.0051,-0.070649 -0.0051,-0.1545118 5.1e-5,-0.055908 7.2e-4,-0.1287354 0.0017,-0.2235487 0.0017,-0.167814 0.0013,-0.3208346 -9.24e-4,-0.3942951 -7.37e-4,-0.024491 -0.0016,-0.040138 -0.0033,-0.044554 -0.0012,-0.00496 -0.0033,-0.00934 -0.0051,-0.013511 -4.42e-4,-8.543e-4 -8.55e-4,-0.0017 -0.0013,-0.00252 -0.0011,-0.00188 -0.0017,-0.00339 -0.0033,-0.00509 -0.0017,-0.00316 -0.0051,-0.00606 -0.0084,-0.00855 -0.0015,-0.00133 -0.0033,-0.00256 -0.0051,-0.00365 -0.0033,-0.00213 -0.007,-0.00386 -0.01027,-0.0053 -0.0016,-6.799e-4 -0.0033,-0.00149 -0.0051,-0.002 -0.0051,-0.00164 -0.01027,-0.00273 -0.0154,-0.00282 z"
       style="stroke-width:0.055411" /></g></svg>
